HIERARCHY
ROOT hip
{
	OFFSET 0.000000 0.000000 0.000000 
	CHANNELS 6 Xposition Yposition Zposition Xrotation Zrotation Yrotation
	JOINT abdomen
	{
		OFFSET 0.000000 3.402643 0.000000 
		CHANNELS 3 Xrotation Zrotation Yrotation
		JOINT chest
		{
			OFFSET 0.000000 8.438565 -0.680529 
			CHANNELS 3 Xrotation Zrotation Yrotation
			JOINT neck
			{
				OFFSET 0.000000 10.207942 -0.272212 
				CHANNELS 3 Xrotation Zrotation Yrotation
				JOINT head
				{
					OFFSET 0.000000 3.130431 0.000000 
					CHANNELS 3 Xrotation Zrotation Yrotation
					End Site
					{
						OFFSET 0.000000 3.130435 0.000000 
					}
				}
			}
			JOINT lCollar
			{
				OFFSET 3.470700 6.669187 -0.816635 
				CHANNELS 3 Yrotation Zrotation Xrotation
				JOINT lShldr
				{
					OFFSET 3.198488 0.000000 0.000000 
					CHANNELS 3 Zrotation Yrotation Xrotation
					JOINT lForeArm
					{
						OFFSET 10.139888 0.000000 0.000000 
						CHANNELS 3 Yrotation Zrotation Xrotation
						JOINT lHand
						{
							OFFSET 8.370511 0.000000 0.000000 
							CHANNELS 3 Zrotation Yrotation Xrotation
							End Site
							{
								OFFSET 4.083176 0.000000 0.000000 
							}
						}
					}
				}
			}
			JOINT rCollar
			{
				OFFSET -3.470700 6.669187 -0.816635 
				CHANNELS 3 Yrotation Zrotation Xrotation
				JOINT rShldr
				{
					OFFSET -3.198488 0.000000 0.000000 
					CHANNELS 3 Zrotation Yrotation Xrotation
					JOINT rForeArm
					{
						OFFSET -10.139888 0.000000 0.000000 
						CHANNELS 3 Yrotation Zrotation Xrotation
						JOINT rHand
						{
							OFFSET -8.370511 0.000000 0.000000 
							CHANNELS 3 Zrotation Yrotation Xrotation
							End Site
							{
								OFFSET -4.083176 0.000000 0.000000 
							}
						}
					}
				}
			}
		}
	}
	JOINT lThigh
	{
		OFFSET 5.308129 -1.633274 1.361059 
		CHANNELS 3 Xrotation Zrotation Yrotation
		JOINT lShin
		{
			OFFSET -2.041588 -20.007561 0.000000 
			CHANNELS 3 Xrotation Zrotation Yrotation
			JOINT lFoot
			{
				OFFSET 0.000000 -19.190928 -1.224953 
				CHANNELS 3 Xrotation Yrotation Zrotation
				End Site
				{
					OFFSET 0.000000 -2.449906 4.627600 
				}
			}
		}
	}
	JOINT rThigh
	{
		OFFSET -5.308129 -1.633274 1.361059 
		CHANNELS 3 Xrotation Zrotation Yrotation
		JOINT rShin
		{
			OFFSET 2.041588 -20.007561 0.000000 
			CHANNELS 3 Xrotation Zrotation Yrotation
			JOINT rFoot
			{
				OFFSET 0.000000 -19.190928 -1.224953 
				CHANNELS 3 Xrotation Yrotation Zrotation
				End Site
				{
					OFFSET 0.000000 -2.449906 4.627600 
				}
			}
		}
	}
}
MOTION
Frames: 6
Frame Time: 0.033333
-15.654860 44.344902 71.921135 -15.644531 -5.810547 135.155243 15.595704 7.480468 4.971975 -18.095701 3.242188 3.086490 -6.298828 -1.738281 18.251659 20.156250 -13.720702 17.614870 1.230469 1.494141 -0.048828 -69.707031 10.214844 -8.046876 -100.087891 -3.300781 -43.173828 32.587898 -128.007813 -25.544806 7.197266 3.066406 -0.205601 63.193359 0.878906 25.302883 54.150387 2.890625 -28.750002 7.500000 12.910155 1.904297 -47.098328 28.436295 13.926501 33.665165 -1.095476 -2.312226 -4.877751 0.735789 -5.226058 -21.615950 -3.876011 -0.752448 43.837543 0.032162 2.967889 -34.383392 -19.000790 -7.663499 
-15.684869 44.352989 71.843491 -15.644531 -6.162109 134.803650 15.771484 7.421875 5.136719 -18.095703 3.417969 3.085938 -6.650391 -1.708984 18.427734 19.980469 -13.896485 17.607424 1.406250 1.318359 -0.049053 -69.492188 10.214845 -7.958985 -100.302734 -3.339844 -43.583984 33.242203 -128.261719 -25.954933 7.197266 3.066406 -0.205601 62.861332 0.888672 25.742340 54.453125 2.871094 -28.652834 7.548829 13.232422 2.072548 -47.044014 28.723433 15.003922 33.648945 -1.095484 -2.486208 -4.608408 0.285081 -5.022362 -21.694960 -4.218041 -1.042314 43.696728 0.458937 2.415534 -34.061287 -18.108765 -6.611992 
-15.733622 44.328613 71.744865 -15.830077 -6.337891 134.461807 15.751953 7.197266 5.244141 -18.095703 3.593750 3.437500 -7.001954 -1.708984 18.427732 19.980471 -14.072266 17.780828 1.406250 1.142578 -0.039257 -69.160156 10.429687 -7.966983 -100.722656 -3.251953 -44.364681 33.955082 -128.779297 -26.452927 7.197266 3.066406 -0.205601 62.265625 0.644531 26.298824 54.814453 2.939453 -28.691910 7.724609 13.398438 2.080078 -47.185825 29.050936 16.037851 34.175365 -1.085905 -2.539629 -4.612932 -0.257237 -5.072796 -22.105913 -5.106735 -2.514722 43.684822 0.332019 2.706293 -34.085110 -16.652454 -5.954925 
-15.817162 44.271404 71.627640 -16.005859 -6.689453 134.110184 15.927734 7.138672 5.411370 -18.271484 3.769531 3.613281 -7.519532 -1.865235 18.623045 19.804688 -14.072266 17.783203 1.757813 1.142578 -0.048828 -68.720703 10.429687 -7.753907 -100.976563 -3.408203 -45.350983 34.970707 -129.433594 -27.009497 7.373046 2.890625 -0.195313 61.865231 0.595703 26.455078 55.175781 2.861328 -28.828125 8.085938 13.388673 2.140934 -47.743061 29.422615 17.133162 34.887020 -0.919968 -2.663478 -4.613033 -0.710176 -5.063981 -22.437134 -5.799647 -2.955782 43.872448 0.449063 2.420219 -34.164291 -15.574267 -5.109750 
-15.916018 44.159695 71.519600 -16.171877 -7.041016 133.740219 16.074219 6.855469 5.683593 -18.623047 3.769531 3.789063 -7.695313 -1.689453 18.603516 19.628906 -14.423828 17.946789 1.933594 0.966797 -0.048993 -68.291008 10.107423 -7.683832 -100.888672 -3.310547 -45.858810 35.458981 -129.863281 -27.275391 7.558594 3.066406 -0.234897 61.416016 0.488281 26.318478 55.322266 2.929687 -28.740238 8.652344 13.339845 2.343750 -48.457104 29.619297 17.426947 36.135109 -1.104303 -2.442404 -5.249505 -0.919230 -5.339083 -23.121437 -6.317541 -3.946661 44.570122 0.156169 2.505017 -34.300610 -14.778952 -4.508032 
-16.029446 43.999470 71.433739 -16.347654 -7.568360 133.563171 16.240232 6.630859 5.791016 -18.974611 3.769531 4.140625 -8.046876 -1.494141 18.749998 19.628906 -14.599609 17.946756 1.933594 0.966797 -0.048993 -68.105469 9.462891 -7.919922 -100.673828 -3.242188 -45.614956 35.332050 -129.814453 -27.439144 7.910156 3.242188 -0.273438 61.376953 0.517578 25.752077 55.322266 2.929687 -28.740238 9.179688 13.310548 2.363281 -49.676609 29.793718 17.237907 37.349216 -0.929999 -2.460181 -5.548211 -0.635726 -5.436380 -23.980808 -7.010556 -4.382300 45.281242 0.458919 2.133285 -34.696507 -13.513930 -4.001037 
